<svg class="dots" width="21" height="20" viewBox="0 0 21 20" fill="none" xmlns="http://www.w3.org/2000/svg">
<path d="M10.2 10.8333C10.6603 10.8333 11.0334 10.4602 11.0334 10C11.0334 9.53977 10.6603 9.16667 10.2 9.16667C9.73978 9.16667 9.36669 9.53977 9.36669 10C9.36669 10.4602 9.73978 10.8333 10.2 10.8333Z" stroke="#86949E" stroke-width="2" stroke-linecap="round" stroke-linejoin="round"/>
<path d="M16.0334 10.8333C16.4936 10.8333 16.8667 10.4602 16.8667 10C16.8667 9.53977 16.4936 9.16667 16.0334 9.16667C15.5731 9.16667 15.2 9.53977 15.2 10C15.2 10.4602 15.5731 10.8333 16.0334 10.8333Z" stroke="#86949E" stroke-width="2" stroke-linecap="round" stroke-linejoin="round"/>
<path d="M4.36669 10.8333C4.82693 10.8333 5.20002 10.4602 5.20002 10C5.20002 9.53977 4.82693 9.16667 4.36669 9.16667C3.90645 9.16667 3.53336 9.53977 3.53336 10C3.53336 10.4602 3.90645 10.8333 4.36669 10.8333Z" stroke="#86949E" stroke-width="2" stroke-linecap="round" stroke-linejoin="round"/>
</svg>
